<svg height='300px' width='300px'  fill="#000000" xmlns:dc="http://purl.org/dc/elements/1.1/" xmlns:cc="http://creativecommons.org/ns#" xmlns:rdf="http://www.w3.org/1999/02/22-rdf-syntax-ns#" xmlns:svg="http://www.w3.org/2000/svg" xmlns="http://www.w3.org/2000/svg" xmlns:sodipodi="http://sodipodi.sourceforge.net/DTD/sodipodi-0.dtd" xmlns:inkscape="http://www.inkscape.org/namespaces/inkscape" version="1.1" x="0px" y="0px" viewBox="0 0 100 100"><g transform="translate(0,-952.36218)"><path style="text-indent:0;text-transform:none;direction:ltr;block-progression:tb;baseline-shift:baseline;color:#000000;enable-background:accumulate;" d="m 34.847788,961.37332 a 2.0001999,2.0001999 0 0 0 -0.4063,0.125 c -16.1567,5.9877 -25.4374,21.6377 -25.4374,39.62498 0,23.3065 18.9436,42.2501 42.25,42.2501 17.9873,0 33.6374,-9.312 39.625,-25.4688 a 2.0001999,2.0001999 0 0 0 -2.625,-2.5312 c -4.3352,1.7433 -9.0593,2.625 -14.0626,2.625 -20.7623,0 -39.8437,-19.05008 -39.8437,-39.81258 0,-5.0032 0.9129,-9.7586 2.6563,-14.0937 a 2.0001999,2.0001999 0 0 0 -2.1563,-2.7188 z m -2.8437,5.6563 c -0.977,3.5829 -1.6563,7.2776 -1.6563,11.1562 0,23.17188 20.6719,43.81258 43.8437,43.81258 3.8669,0 7.5518,-0.6539 11.125,-1.625 -6.2713,12.0788 -18.9928,19 -34.0624,19 -21.1447,0 -38.25,-17.1054 -38.25,-38.2501 0,-15.08208 6.9023,-27.82808 19,-34.09368 z" fill="#000000" fill-opacity="1" marker="none" visibility="visible" display="inline" overflow="visible"></path></g></svg>